<svg width="215" height="67" viewBox="0 0 215 67" fill="none" xmlns="http://www.w3.org/2000/svg">
<path d="M10.1426 4.52734C8.26497 4.52734 6.78841 5.19271 5.71289 6.52344C4.63737 7.85417 4.09961 9.69076 4.09961 12.0332C4.09961 14.485 4.61458 16.3398 5.64453 17.5977C6.68359 18.8555 8.18294 19.4844 10.1426 19.4844C10.9902 19.4844 11.8105 19.4023 12.6035 19.2383C13.3965 19.0651 14.2214 18.8464 15.0781 18.582V21.3848C13.5104 21.9772 11.7331 22.2734 9.74609 22.2734C6.82031 22.2734 4.57357 21.3893 3.00586 19.6211C1.43815 17.8438 0.654297 15.3053 0.654297 12.0059C0.654297 9.92773 1.03255 8.10938 1.78906 6.55078C2.55469 4.99219 3.65755 3.79818 5.09766 2.96875C6.53776 2.13932 8.22852 1.72461 10.1699 1.72461C12.2116 1.72461 14.0983 2.15299 15.8301 3.00977L14.6543 5.73047C13.9798 5.41146 13.2643 5.13346 12.5078 4.89648C11.7604 4.65039 10.972 4.52734 10.1426 4.52734Z" fill="#161C24" fill-opacity="0.9"/>
<path d="M22.2559 22H19.043V6.87891H22.2559V22ZM18.8516 2.87305C18.8516 2.29883 19.0065 1.85677 19.3164 1.54688C19.6354 1.23698 20.0866 1.08203 20.6699 1.08203C21.235 1.08203 21.6725 1.23698 21.9824 1.54688C22.3014 1.85677 22.4609 2.29883 22.4609 2.87305C22.4609 3.41992 22.3014 3.85286 21.9824 4.17188C21.6725 4.48177 21.235 4.63672 20.6699 4.63672C20.0866 4.63672 19.6354 4.48177 19.3164 4.17188C19.0065 3.85286 18.8516 3.41992 18.8516 2.87305Z" fill="#161C24" fill-opacity="0.9"/>
<path d="M32.4961 19.6758C33.2799 19.6758 34.0638 19.5527 34.8477 19.3066V21.7266C34.4922 21.8815 34.0319 22.0091 33.4668 22.1094C32.9108 22.2188 32.332 22.2734 31.7305 22.2734C28.6862 22.2734 27.1641 20.6693 27.1641 17.4609V9.3125H25.0996V7.89062L27.3145 6.71484L28.4082 3.51562H30.3906V6.87891H34.6973V9.3125H30.3906V17.4062C30.3906 18.181 30.582 18.7552 30.9648 19.1289C31.3568 19.4935 31.8672 19.6758 32.4961 19.6758Z" fill="#161C24" fill-opacity="0.9"/>
<path d="M35.5859 6.87891H39.0859L42.1621 15.4512C42.627 16.6725 42.9368 17.821 43.0918 18.8965H43.2012C43.2832 18.3952 43.4336 17.7891 43.6523 17.0781C43.8711 16.3581 45.0286 12.9583 47.125 6.87891H50.5977L44.1309 24.0098C42.9551 27.1543 40.9954 28.7266 38.252 28.7266C37.541 28.7266 36.8483 28.6491 36.1738 28.4941V25.9512C36.6569 26.0605 37.2083 26.1152 37.8281 26.1152C39.3776 26.1152 40.4668 25.2174 41.0957 23.4219L41.6562 22L35.5859 6.87891Z" fill="#161C24" fill-opacity="0.9"/>
<path d="M73.5801 14.4121C73.5801 16.8822 72.9466 18.8099 71.6797 20.1953C70.4128 21.5807 68.6491 22.2734 66.3887 22.2734C64.9759 22.2734 63.7272 21.9544 62.6426 21.3164C61.5579 20.6784 60.724 19.7624 60.1406 18.5684C59.5573 17.3743 59.2656 15.9889 59.2656 14.4121C59.2656 11.9603 59.8945 10.0462 61.1523 8.66992C62.4102 7.29362 64.1829 6.60547 66.4707 6.60547C68.6582 6.60547 70.39 7.31185 71.666 8.72461C72.9421 10.1283 73.5801 12.0241 73.5801 14.4121ZM62.5742 14.4121C62.5742 17.903 63.8639 19.6484 66.4434 19.6484C68.9954 19.6484 70.2715 17.903 70.2715 14.4121C70.2715 10.9577 68.9863 9.23047 66.416 9.23047C65.0671 9.23047 64.0872 9.67708 63.4766 10.5703C62.875 11.4635 62.5742 12.7441 62.5742 14.4121Z" fill="#161C24" fill-opacity="0.9"/>
<path d="M84.873 9.3125H81.1816V22H77.9551V9.3125H75.4668V7.80859L77.9551 6.82422V5.83984C77.9551 4.05339 78.3743 2.73177 79.2129 1.875C80.0514 1.00911 81.332 0.576172 83.0547 0.576172C84.1849 0.576172 85.2969 0.763021 86.3906 1.13672L85.543 3.57031C84.75 3.3151 83.9935 3.1875 83.2734 3.1875C82.5443 3.1875 82.0111 3.41536 81.6738 3.87109C81.3457 4.31771 81.1816 4.99219 81.1816 5.89453V6.87891H84.873V9.3125Z" fill="#161C24" fill-opacity="0.9"/>
<path d="M108.307 8.05469C108.307 10.1419 107.623 11.7415 106.256 12.8535C104.889 13.9655 102.943 14.5215 100.418 14.5215H98.3398V22H95.0723V2.01172H100.828C103.326 2.01172 105.194 2.52214 106.434 3.54297C107.682 4.5638 108.307 6.06771 108.307 8.05469ZM98.3398 11.7734H100.076C101.753 11.7734 102.984 11.4818 103.768 10.8984C104.551 10.3151 104.943 9.40365 104.943 8.16406C104.943 7.01562 104.592 6.15885 103.891 5.59375C103.189 5.02865 102.095 4.74609 100.609 4.74609H98.3398V11.7734Z" fill="#161C24" fill-opacity="0.9"/>
<path d="M125.369 14.4121C125.369 16.8822 124.736 18.8099 123.469 20.1953C122.202 21.5807 120.438 22.2734 118.178 22.2734C116.765 22.2734 115.516 21.9544 114.432 21.3164C113.347 20.6784 112.513 19.7624 111.93 18.5684C111.346 17.3743 111.055 15.9889 111.055 14.4121C111.055 11.9603 111.684 10.0462 112.941 8.66992C114.199 7.29362 115.972 6.60547 118.26 6.60547C120.447 6.60547 122.179 7.31185 123.455 8.72461C124.731 10.1283 125.369 12.0241 125.369 14.4121ZM114.363 14.4121C114.363 17.903 115.653 19.6484 118.232 19.6484C120.785 19.6484 122.061 17.903 122.061 14.4121C122.061 10.9577 120.775 9.23047 118.205 9.23047C116.856 9.23047 115.876 9.67708 115.266 10.5703C114.664 11.4635 114.363 12.7441 114.363 14.4121Z" fill="#161C24" fill-opacity="0.9"/>
<path d="M136.744 6.60547C137.391 6.60547 137.924 6.65104 138.344 6.74219L138.029 9.73633C137.574 9.62695 137.1 9.57227 136.607 9.57227C135.322 9.57227 134.279 9.99154 133.477 10.8301C132.684 11.6686 132.287 12.7578 132.287 14.0977V22H129.074V6.87891H131.59L132.014 9.54492H132.178C132.679 8.64258 133.331 7.92708 134.133 7.39844C134.944 6.86979 135.814 6.60547 136.744 6.60547Z" fill="#161C24" fill-opacity="0.9"/>
<path d="M146.793 19.6758C147.577 19.6758 148.361 19.5527 149.145 19.3066V21.7266C148.789 21.8815 148.329 22.0091 147.764 22.1094C147.208 22.2188 146.629 22.2734 146.027 22.2734C142.983 22.2734 141.461 20.6693 141.461 17.4609V9.3125H139.396V7.89062L141.611 6.71484L142.705 3.51562H144.688V6.87891H148.994V9.3125H144.688V17.4062C144.688 18.181 144.879 18.7552 145.262 19.1289C145.654 19.4935 146.164 19.6758 146.793 19.6758Z" fill="#161C24" fill-opacity="0.9"/>
<path d="M155.393 22H152.18V0.726562H155.393V22Z" fill="#161C24" fill-opacity="0.9"/>
<path d="M169.461 22L168.818 19.8945H168.709C167.98 20.8151 167.246 21.444 166.508 21.7812C165.77 22.1094 164.822 22.2734 163.664 22.2734C162.178 22.2734 161.016 21.8724 160.178 21.0703C159.348 20.2682 158.934 19.1335 158.934 17.666C158.934 16.1074 159.512 14.9316 160.67 14.1387C161.827 13.3457 163.591 12.9128 165.961 12.8398L168.572 12.7578V11.9512C168.572 10.985 168.344 10.265 167.889 9.79102C167.442 9.30794 166.745 9.06641 165.797 9.06641C165.022 9.06641 164.279 9.18034 163.568 9.4082C162.857 9.63607 162.174 9.90495 161.518 10.2148L160.479 7.91797C161.299 7.48958 162.197 7.16602 163.172 6.94727C164.147 6.7194 165.068 6.60547 165.934 6.60547C167.857 6.60547 169.306 7.02474 170.281 7.86328C171.266 8.70182 171.758 10.0189 171.758 11.8145V22H169.461ZM164.676 19.8125C165.842 19.8125 166.777 19.4889 167.479 18.8418C168.189 18.1855 168.545 17.2695 168.545 16.0938V14.7812L166.604 14.8633C165.09 14.918 163.988 15.1732 163.295 15.6289C162.611 16.0755 162.27 16.7637 162.27 17.6934C162.27 18.3678 162.47 18.8919 162.871 19.2656C163.272 19.6302 163.874 19.8125 164.676 19.8125Z" fill="#161C24" fill-opacity="0.9"/>
<path d="M189.545 22H186.318V12.7031C186.318 11.5365 186.081 10.666 185.607 10.0918C185.143 9.51758 184.4 9.23047 183.379 9.23047C182.021 9.23047 181.027 9.63151 180.398 10.4336C179.77 11.2357 179.455 12.5801 179.455 14.4668V22H176.242V6.87891H178.758L179.209 8.86133H179.373C179.829 8.14128 180.476 7.58529 181.314 7.19336C182.153 6.80143 183.083 6.60547 184.104 6.60547C187.731 6.60547 189.545 8.45117 189.545 12.1426V22Z" fill="#161C24" fill-opacity="0.9"/>
<path d="M199.115 22.2734C197.229 22.2734 195.757 21.5898 194.699 20.2227C193.642 18.8555 193.113 16.9368 193.113 14.4668C193.113 11.9876 193.646 10.0599 194.713 8.68359C195.788 7.29818 197.274 6.60547 199.17 6.60547C201.157 6.60547 202.67 7.33919 203.709 8.80664H203.873C203.718 7.72201 203.641 6.86523 203.641 6.23633V0.726562H206.867V22H204.352L203.791 20.0176H203.641C202.611 21.5215 201.102 22.2734 199.115 22.2734ZM199.977 19.6758C201.298 19.6758 202.26 19.3066 202.861 18.5684C203.463 17.821 203.773 16.6133 203.791 14.9453V14.4941C203.791 12.5892 203.481 11.2357 202.861 10.4336C202.242 9.63151 201.271 9.23047 199.949 9.23047C198.819 9.23047 197.949 9.69076 197.338 10.6113C196.727 11.5228 196.422 12.8262 196.422 14.5215C196.422 16.1986 196.718 17.4792 197.311 18.3633C197.903 19.2383 198.792 19.6758 199.977 19.6758Z" fill="#161C24" fill-opacity="0.9"/>
<path d="M214.797 19.0605C214.359 20.7559 213.557 22.9388 212.391 25.6094H210.025C210.654 23.1484 211.124 20.8607 211.434 18.7461H214.592L214.797 19.0605Z" fill="#161C24" fill-opacity="0.9"/>
<path d="M19.3848 49.9785C19.3848 53.2324 18.569 55.7617 16.9375 57.5664C15.3151 59.3711 13.0137 60.2734 10.0332 60.2734C7.01628 60.2734 4.69661 59.3802 3.07422 57.5938C1.46094 55.7982 0.654297 53.2507 0.654297 49.9512C0.654297 46.6517 1.46549 44.1178 3.08789 42.3496C4.7194 40.5814 7.04362 39.6973 10.0605 39.6973C13.0319 39.6973 15.3288 40.5951 16.9512 42.3906C18.5736 44.1862 19.3848 46.7155 19.3848 49.9785ZM4.12695 49.9785C4.12695 52.4395 4.6237 54.3079 5.61719 55.584C6.61068 56.8509 8.08268 57.4844 10.0332 57.4844C11.9746 57.4844 13.4375 56.8555 14.4219 55.5977C15.4154 54.3398 15.9121 52.4668 15.9121 49.9785C15.9121 47.5267 15.4199 45.6673 14.4355 44.4004C13.4603 43.1335 12.002 42.5 10.0605 42.5C8.10091 42.5 6.61979 43.1335 5.61719 44.4004C4.6237 45.6673 4.12695 47.5267 4.12695 49.9785Z" fill="#161C24" fill-opacity="0.9"/>
<path d="M31.0059 44.6055C31.653 44.6055 32.1862 44.651 32.6055 44.7422L32.291 47.7363C31.8353 47.627 31.3613 47.5723 30.8691 47.5723C29.584 47.5723 28.5404 47.9915 27.7383 48.8301C26.9453 49.6686 26.5488 50.7578 26.5488 52.0977V60H23.3359V44.8789H25.8516L26.2754 47.5449H26.4395C26.9408 46.6426 27.5924 45.9271 28.3945 45.3984C29.2057 44.8698 30.0762 44.6055 31.0059 44.6055Z" fill="#161C24" fill-opacity="0.9"/>
<path d="M42.0254 60.2734C39.6738 60.2734 37.8327 59.5898 36.502 58.2227C35.1803 56.8464 34.5195 54.9551 34.5195 52.5488C34.5195 50.0788 35.1348 48.1374 36.3652 46.7246C37.5957 45.3118 39.2865 44.6055 41.4375 44.6055C43.4336 44.6055 45.0104 45.2116 46.168 46.4238C47.3255 47.6361 47.9043 49.304 47.9043 51.4277V53.1641H37.8281C37.8737 54.6315 38.2702 55.7617 39.0176 56.5547C39.765 57.3385 40.8177 57.7305 42.1758 57.7305C43.069 57.7305 43.8984 57.6484 44.6641 57.4844C45.4388 57.3112 46.2682 57.0286 47.1523 56.6367V59.248C46.3685 59.6217 45.5755 59.8861 44.7734 60.041C43.9714 60.196 43.0553 60.2734 42.0254 60.2734ZM41.4375 47.0391C40.4167 47.0391 39.5964 47.3626 38.9766 48.0098C38.3659 48.6569 38.0013 49.6003 37.8828 50.8398H44.7461C44.7279 49.5911 44.4271 48.6478 43.8438 48.0098C43.2604 47.3626 42.4583 47.0391 41.4375 47.0391Z" fill="#161C24" fill-opacity="0.9"/>
<path d="M64.3242 44.8789V46.6426L61.7402 47.1211C61.9772 47.4401 62.1732 47.832 62.3281 48.2969C62.4831 48.7617 62.5605 49.2539 62.5605 49.7734C62.5605 51.332 62.0228 52.5579 60.9473 53.4512C59.8717 54.3444 58.3906 54.791 56.5039 54.791C56.0208 54.791 55.5833 54.7546 55.1914 54.6816C54.4987 55.11 54.1523 55.6113 54.1523 56.1855C54.1523 56.5319 54.3118 56.7917 54.6309 56.9648C54.959 57.138 55.556 57.2246 56.4219 57.2246H59.0605C60.7285 57.2246 61.9954 57.5801 62.8613 58.291C63.7272 59.002 64.1602 60.0273 64.1602 61.3672C64.1602 63.0807 63.4538 64.4023 62.041 65.332C60.6283 66.2617 58.5866 66.7266 55.916 66.7266C53.8561 66.7266 52.2839 66.362 51.1992 65.6328C50.1146 64.9036 49.5723 63.8646 49.5723 62.5156C49.5723 61.5859 49.8639 60.8021 50.4473 60.1641C51.0397 59.5352 51.8646 59.0977 52.9219 58.8516C52.4935 58.6693 52.138 58.3776 51.8555 57.9766C51.582 57.5664 51.4453 57.138 51.4453 56.6914C51.4453 56.1263 51.6048 55.6478 51.9238 55.2559C52.2428 54.8639 52.7168 54.4766 53.3457 54.0938C52.5618 53.7565 51.9238 53.2096 51.4316 52.4531C50.9486 51.6875 50.707 50.7943 50.707 49.7734C50.707 48.1328 51.222 46.8613 52.252 45.959C53.291 45.0566 54.7676 44.6055 56.6816 44.6055C57.11 44.6055 57.5566 44.6374 58.0215 44.7012C58.4954 44.7559 58.8509 44.8151 59.0879 44.8789H64.3242ZM52.4434 62.3516C52.4434 63.0443 52.7533 63.5775 53.373 63.9512C54.002 64.3249 54.8815 64.5117 56.0117 64.5117C57.7617 64.5117 59.0651 64.2611 59.9219 63.7598C60.7786 63.2585 61.207 62.5931 61.207 61.7637C61.207 61.1074 60.9701 60.638 60.4961 60.3555C60.0312 60.082 59.1608 59.9453 57.8848 59.9453H55.4512C54.5306 59.9453 53.7969 60.1595 53.25 60.5879C52.7122 61.0254 52.4434 61.6133 52.4434 62.3516ZM53.8242 49.7734C53.8242 50.7214 54.0658 51.4505 54.5488 51.9609C55.041 52.4714 55.7428 52.7266 56.6543 52.7266C58.5137 52.7266 59.4434 51.7331 59.4434 49.7461C59.4434 48.7617 59.2109 48.0052 58.7461 47.4766C58.2904 46.9388 57.5931 46.6699 56.6543 46.6699C55.7246 46.6699 55.0182 46.9342 54.5352 47.4629C54.0612 47.9915 53.8242 48.7617 53.8242 49.7734Z" fill="#161C24" fill-opacity="0.9"/>
<path d="M80.5527 52.4121C80.5527 54.8822 79.9193 56.8099 78.6523 58.1953C77.3854 59.5807 75.6217 60.2734 73.3613 60.2734C71.9486 60.2734 70.6999 59.9544 69.6152 59.3164C68.5306 58.6784 67.6966 57.7624 67.1133 56.5684C66.5299 55.3743 66.2383 53.9889 66.2383 52.4121C66.2383 49.9603 66.8672 48.0462 68.125 46.6699C69.3828 45.2936 71.1556 44.6055 73.4434 44.6055C75.6309 44.6055 77.3626 45.3118 78.6387 46.7246C79.9147 48.1283 80.5527 50.0241 80.5527 52.4121ZM69.5469 52.4121C69.5469 55.903 70.8366 57.6484 73.416 57.6484C75.9681 57.6484 77.2441 55.903 77.2441 52.4121C77.2441 48.9577 75.959 47.2305 73.3887 47.2305C72.0397 47.2305 71.0599 47.6771 70.4492 48.5703C69.8477 49.4635 69.5469 50.7441 69.5469 52.4121Z" fill="#161C24" fill-opacity="0.9"/>
<path d="M97.5605 60H94.334V50.7031C94.334 49.5365 94.097 48.666 93.623 48.0918C93.1582 47.5176 92.4154 47.2305 91.3945 47.2305C90.0365 47.2305 89.043 47.6315 88.4141 48.4336C87.7852 49.2357 87.4707 50.5801 87.4707 52.4668V60H84.2578V44.8789H86.7734L87.2246 46.8613H87.3887C87.8444 46.1413 88.4915 45.5853 89.3301 45.1934C90.1686 44.8014 91.0983 44.6055 92.1191 44.6055C95.7467 44.6055 97.5605 46.4512 97.5605 50.1426V60Z" fill="#161C24" fill-opacity="0.9"/>
</svg>
